<?xml version="1.0" encoding="UTF-8"?>
<!DOCTYPE svg PUBLIC "-//W3C//DTD SVG 1.1//EN" "http://www.w3.org/Graphics/SVG/1.1/DTD/svg11.dtd">
<!-- Creator: CorelDRAW X7 -->
<svg xmlns="http://www.w3.org/2000/svg" xml:space="preserve" width="236px" height="236px" version="1.1" style="shape-rendering:geometricPrecision; text-rendering:geometricPrecision; image-rendering:optimizeQuality; fill-rule:evenodd; clip-rule:evenodd"
viewBox="0 0 293 293"
 xmlns:xlink="http://www.w3.org/1999/xlink">
 <defs>
  <style type="text/css">
   <![CDATA[
    .fil1 {fill:#FEFDFD}
    .fil0 {fill:url(#id0)}
   ]]>
  </style>
  <linearGradient id="id0" gradientUnits="userSpaceOnUse" x1="-0" y1="146.333" x2="292.666" y2="146.333">
   <stop offset="0" style="stop-opacity:1; stop-color:#343273"/>
   <stop offset="0.490196" style="stop-opacity:1; stop-color:#72347D"/>
   <stop offset="1" style="stop-opacity:1; stop-color:#B23187"/>
  </linearGradient>
 </defs>
 <g id="Layer_x0020_1">
  <metadata id="CorelCorpID_0Corel-Layer"/>
  <circle class="fil0" cx="146" cy="146" r="146"/>
  <g id="_2290689252448">
   <path class="fil1" d="M44 120c0,2 -8,6 -13,17 -9,17 -9,34 0,51 4,9 13,15 13,17 4,1 9,6 20,9 14,3 19,0 26,1 2,-2 8,-2 17,-8 5,-3 10,-8 13,-12 9,-12 11,-22 11,-41 0,-16 0,-33 0,-50 0,-5 1,-21 -1,-24 -3,-4 -11,-9 -13,-13 -3,-2 -6,-6 -8,-7 1,24 0,50 0,75 0,23 4,45 -19,56 -21,9 -42,-6 -43,-25 -1,-12 4,-22 10,-27 8,-7 15,-9 28,-7l5 -22c-10,-1 -15,-2 -26,1 -11,3 -15,7 -20,9z"/>
   <path class="fil1" d="M161 203c10,5 15,12 35,13l1 -22c-18,-1 -32,-15 -31,-27 -1,-1 -1,-1 -1,-3l0 -33 31 0 0 -22 -31 0c0,-8 0,-17 0,-25l0 -22c0,-3 1,-1 -1,-3 -3,6 -20,19 -21,24 -1,13 0,32 0,46 0,24 -4,48 12,67l5 5c1,1 0,0 1,2z"/>
   <path class="fil1" d="M213 192c6,7 9,11 18,16 8,5 16,8 27,8l0 -23c-17,0 -31,-12 -31,-28 -2,-4 -2,-28 -1,-34 5,-1 24,0 31,0l0 -22 -31 0c-2,-5 1,-40 0,-50l-1 0c-2,4 -7,8 -10,11 -2,2 -9,9 -10,10 -2,3 -1,72 -1,81 0,12 4,23 9,31z"/>
  </g>
 </g>
</svg>
